<?xml version="1.0" encoding="utf-8"?>
<!-- Generator: Adobe Illustrator 16.0.0, SVG Export Plug-In . SVG Version: 6.00 Build 0)  -->
<!DOCTYPE svg PUBLIC "-//W3C//DTD SVG 1.1//EN" "http://www.w3.org/Graphics/SVG/1.1/DTD/svg11.dtd">
<svg version="1.1" id="Layer_1" xmlns="http://www.w3.org/2000/svg" xmlns:xlink="http://www.w3.org/1999/xlink" x="0px" y="0px"
	 width="112.5px" height="54.25px" viewBox="0 0 112.5 54.25" enable-background="new 0 0 112.5 54.25" xml:space="preserve">
<g>
	<g>
		<text transform="matrix(1 0 0 1 56.9023 30.2988)"><tspan x="0" y="0" fill="#41869F" font-family="'Dobra-Medium'" font-size="15.8315">S</tspan><tspan x="8.66" y="0" fill="#41869F" font-family="'Dobra-Medium'" font-size="15.8315">UKRITI</tspan></text>
		<g>
			
				<rect x="35.969" y="19.729" transform="matrix(-0.7864 -0.6177 0.6177 -0.7864 53.5991 59.1802)" fill-rule="evenodd" clip-rule="evenodd" fill="#6CBE45" width="2.123" height="1.191"/>
			
				<rect x="38.421" y="21.655" transform="matrix(-0.786 -0.6182 0.6182 -0.786 56.7635 64.1483)" fill-rule="evenodd" clip-rule="evenodd" fill="#6CBE45" width="2.123" height="1.192"/>
			<path fill-rule="evenodd" clip-rule="evenodd" fill="#6CBE45" d="M36.614,19.136l4.122,3.239l4.689-5.97l-4.122-3.238
				L36.614,19.136L36.614,19.136z M43.896,15.876l0.783,0.615l-0.761,0.969l-0.783-0.615L43.896,15.876L43.896,15.876z
				 M42.902,17.143l0.783,0.615l-0.762,0.969l-0.783-0.615L42.902,17.143L42.902,17.143z M41.875,18.449l0.783,0.615l-0.761,0.969
				l-0.783-0.615L41.875,18.449L41.875,18.449z M40.751,19.88l0.783,0.615l-0.761,0.969l-0.783-0.615L40.751,19.88L40.751,19.88z
				 M42.646,14.894l0.784,0.616l-0.762,0.969l-0.783-0.615L42.646,14.894L42.646,14.894z M41.652,16.16l0.783,0.615l-0.762,0.969
				l-0.783-0.615L41.652,16.16L41.652,16.16z M40.625,17.467l0.783,0.616l-0.761,0.968l-0.784-0.615L40.625,17.467L40.625,17.467z
				 M39.501,18.897l0.783,0.615l-0.761,0.97l-0.783-0.616L39.501,18.897L39.501,18.897z M41.42,13.93l0.783,0.615l-0.762,0.969
				l-0.783-0.615L41.42,13.93L41.42,13.93z M40.425,15.196l0.783,0.615l-0.762,0.969l-0.783-0.616L40.425,15.196L40.425,15.196z
				 M39.397,16.503l0.783,0.615l-0.761,0.969l-0.783-0.615L39.397,16.503L39.397,16.503z M38.273,17.933l0.783,0.616l-0.761,0.969
				l-0.783-0.615L38.273,17.933z"/>
			<polygon fill-rule="evenodd" clip-rule="evenodd" fill="#6CBE45" points="45.104,15.146 45.397,14.772 42.897,12.809 
				42.604,13.183 41.793,12.545 41.354,13.103 45.477,16.342 45.915,15.783 			"/>
		</g>
		<g>
			<path fill-rule="evenodd" clip-rule="evenodd" fill="#6CBE45" d="M23.664,8.023c-0.053,0.02-0.104,0.042-0.163,0.048
				c-0.042,0.003-0.079-0.01-0.118-0.015c-0.036,0.053-0.07,0.104-0.112,0.158l1.967,10.754l2.057-0.514L24.102,8.432
				C23.934,8.288,23.787,8.152,23.664,8.023z"/>
			<path fill-rule="evenodd" clip-rule="evenodd" fill="#00854B" d="M25.875,8.149c-0.689-0.446-1.333-0.775-1.826-0.955
				c-0.021-0.165-0.098-0.31-0.215-0.41c0.078-0.521,0.096-1.243,0.028-2.061c-0.125-1.546-0.494-2.777-0.819-2.749
				C22.715,2,22.551,3.275,22.679,4.82c0.063,0.778,0.188,1.455,0.339,1.952c-0.165,0.129-0.271,0.329-0.253,0.554
				c0,0.001,0.001,0.002,0.001,0.003c-0.449,0.263-1.006,0.678-1.588,1.21c-1.144,1.048-1.891,2.094-1.666,2.337
				c0.221,0.24,1.327-0.411,2.469-1.461c0.596-0.545,1.067-1.08,1.363-1.511c0.04,0.005,0.077,0.018,0.119,0.015
				c0.059-0.006,0.109-0.028,0.162-0.048c0.363,0.379,0.921,0.832,1.604,1.274c1.297,0.847,2.497,1.309,2.676,1.035
				C28.084,9.903,27.178,8.995,25.875,8.149L25.875,8.149z M23.431,7.53c-0.142,0.013-0.268-0.095-0.279-0.236
				c-0.013-0.142,0.095-0.269,0.237-0.279c0.143-0.012,0.269,0.094,0.28,0.235C23.68,7.393,23.574,7.519,23.431,7.53z"/>
		</g>
		<g>
			<path fill-rule="evenodd" clip-rule="evenodd" fill="#6CBE45" d="M18.241,19.385l-0.457,1.929l0.926,1.409l0.813-0.535
				l-0.598-0.908c-0.142-0.216-0.082-0.506,0.135-0.648c0.216-0.142,0.506-0.081,0.647,0.134l0.598,0.909l0.813-0.535l-0.927-1.408
				L18.241,19.385z"/>
			<polygon fill-rule="evenodd" clip-rule="evenodd" fill="#6CBE45" points="18.747,19.016 20.274,19.285 21.919,18.204 
				20.369,17.949 			"/>
			<polygon fill-rule="evenodd" clip-rule="evenodd" fill="#6CBE45" points="21.967,18.277 22.08,18.45 20.5,19.489 20.418,19.543 
				20.273,19.639 20.271,19.64 20.271,19.638 18.162,19.265 17.613,21.583 17.42,21.29 17.969,18.972 20.287,19.382 			"/>
			<path fill-rule="evenodd" clip-rule="evenodd" fill="#6CBE45" d="M20.316,19.708l0.78,1.187l1.68-1.104l-0.78-1.187
				L20.316,19.708L20.316,19.708z M22.244,19.675l-1.025,0.674l-0.374-0.569l1.025-0.674L22.244,19.675z"/>
		</g>
		<g>
			<path fill-rule="evenodd" clip-rule="evenodd" fill="#6CBE45" d="M11.48,22.056c-0.009,0.027-0.015,0.062-0.019,0.097
				c-0.054,0.305-0.158,1.255,0.245,2.324c-1.111,0.27-1.838,0.891-2.059,1.106c-0.027,0.023-0.052,0.047-0.07,0.069
				c-0.101,0.091,0.057,0.363,0.228,0.273c0.577-0.316,1.219-0.581,2.058-0.326c0.514,0.156,1.133,0.503,1.724,0.832
				c1.014,0.563,1.916,1.272,1.858,2.324c0.187-0.202,0.604-0.855,0.473-2.052c1.063-0.564,1.367-1.278,1.431-1.546
				c-0.837,0.64-1.932,0.293-2.968-0.228c-0.604-0.304-1.24-0.62-1.658-0.957c-0.683-0.55-0.825-1.229-0.889-1.884
				C11.813,21.897,11.499,21.922,11.48,22.056z"/>
			<g>
				<path fill-rule="evenodd" clip-rule="evenodd" fill="#00854B" d="M4.425,20.784l-0.016-0.062
					c-0.077-0.299-0.277-0.553-0.55-0.696c-0.271-0.145-0.595-0.167-0.885-0.062l-0.06,0.021l0.017,0.061
					c0.076,0.299,0.276,0.553,0.549,0.697c0.271,0.145,0.595,0.166,0.885,0.062L4.425,20.784z"/>
				<path fill-rule="evenodd" clip-rule="evenodd" fill="#00854B" d="M4.226,23.749l0.035-0.053l-0.048-0.041
					c-0.236-0.198-0.547-0.288-0.852-0.247c-0.306,0.041-0.581,0.21-0.757,0.464l-0.035,0.052l0.048,0.041
					c0.236,0.198,0.547,0.288,0.852,0.248C3.774,24.172,4.051,24.003,4.226,23.749z"/>
				<path fill-rule="evenodd" clip-rule="evenodd" fill="#00854B" d="M3.916,27.155c0.169-0.104,0.307-0.249,0.398-0.423
					c0.051-0.096,0.087-0.199,0.107-0.307l0.012-0.062l-0.061-0.018c-0.296-0.088-0.616-0.046-0.88,0.115
					c-0.262,0.159-0.448,0.428-0.506,0.729l-0.012,0.063l0.061,0.018C3.332,27.357,3.652,27.314,3.916,27.155z"/>
				<path fill-rule="evenodd" clip-rule="evenodd" fill="#00854B" d="M5.18,28.806c0.07-0.082,0.128-0.173,0.172-0.271l0,0
					c0.078-0.182,0.107-0.382,0.083-0.578l-0.009-0.063l-0.063,0.003c-0.309,0.009-0.601,0.148-0.801,0.383
					c-0.2,0.233-0.293,0.546-0.254,0.851l0.009,0.063l0.063-0.002C4.688,29.18,4.979,29.04,5.18,28.806z"/>
				<path fill-rule="evenodd" clip-rule="evenodd" fill="#00854B" d="M7.43,28.648l-0.059,0.023
					c-0.286,0.117-0.51,0.349-0.616,0.639s-0.085,0.612,0.058,0.886l0.03,0.056L6.9,30.228c0.253-0.103,0.457-0.294,0.574-0.538
					c0.016-0.032,0.03-0.065,0.042-0.1c0.106-0.289,0.085-0.611-0.059-0.885L7.43,28.648z"/>
				<path fill-rule="evenodd" clip-rule="evenodd" fill="#00854B" d="M9.79,27.419c0.018,0.308,0.165,0.595,0.404,0.79l0.049,0.04
					l0.045-0.046c0.123-0.125,0.216-0.28,0.267-0.448l0,0c0.038-0.123,0.054-0.252,0.046-0.382
					c-0.017-0.307-0.164-0.596-0.404-0.789l-0.049-0.04l-0.044,0.045C9.889,26.807,9.773,27.112,9.79,27.419z"/>
				<path fill-rule="evenodd" clip-rule="evenodd" fill="#00854B" d="M7.402,22.521l-0.046,0.033l0.029,0.049
					c0.194,0.324,0.52,0.553,0.89,0.627c0.371,0.074,0.759-0.013,1.063-0.237l0.045-0.034L9.355,22.91
					c-0.195-0.324-0.52-0.553-0.891-0.627S7.706,22.296,7.402,22.521z"/>
				<path fill-rule="evenodd" clip-rule="evenodd" fill="#00854B" d="M5.313,20.905l-0.055,0.004l-0.002,0.055
					c-0.01,0.372,0.137,0.731,0.405,0.989c0.268,0.257,0.633,0.39,1.004,0.364l0.055-0.003l0.001-0.055
					c0.011-0.372-0.137-0.731-0.404-0.989C6.05,21.014,5.684,20.881,5.313,20.905z"/>
				<path fill-rule="evenodd" clip-rule="evenodd" fill="#00854B" d="M9.196,25.125c0.069-0.16,0.114-0.328,0.136-0.498l0.008-0.065
					l-0.059-0.009c-0.393-0.06-0.808,0.069-1.14,0.354c-0.33,0.282-0.553,0.703-0.606,1.141l-0.008,0.064l0.059,0.009
					c0.393,0.059,0.808-0.069,1.14-0.354C8.926,25.595,9.089,25.373,9.196,25.125L9.196,25.125z"/>
				<path fill-rule="evenodd" clip-rule="evenodd" fill="#00854B" d="M9.023,27.637c0.009-0.02,0.018-0.04,0.025-0.06
					c0.145-0.354,0.133-0.754-0.032-1.099L8.99,26.422l-0.06,0.021c-0.361,0.131-0.645,0.401-0.792,0.762
					c-0.145,0.354-0.133,0.754,0.032,1.099l0.027,0.057l0.059-0.021C8.599,28.214,8.87,27.965,9.023,27.637L9.023,27.637z"/>
				<path fill-rule="evenodd" clip-rule="evenodd" fill="#00854B" d="M6.624,25.78l0.003-0.063l-0.063-0.009
					c-0.379-0.055-0.764,0.054-1.058,0.297c-0.227,0.188-0.383,0.437-0.452,0.72c-0.021,0.086-0.034,0.175-0.038,0.264l-0.003,0.063
					l0.063,0.01c0.378,0.054,0.763-0.055,1.058-0.298c0.226-0.188,0.382-0.436,0.452-0.72C6.607,25.958,6.619,25.869,6.624,25.78z"
					/>
				<path fill-rule="evenodd" clip-rule="evenodd" fill="#00854B" d="M7.354,26.911l-0.017-0.06l-0.061,0.011
					c-0.367,0.063-0.692,0.279-0.893,0.594c-0.153,0.24-0.224,0.519-0.204,0.803c0.007,0.087,0.021,0.173,0.044,0.256l0.017,0.06
					l0.061-0.011c0.366-0.063,0.692-0.278,0.893-0.593c0.153-0.241,0.224-0.519,0.204-0.804C7.391,27.081,7.376,26.995,7.354,26.911
					z"/>
				<path fill-rule="evenodd" clip-rule="evenodd" fill="#00854B" d="M4.6,25.512c0.309-0.115,0.564-0.338,0.72-0.628l0,0
					c0.024-0.045,0.047-0.093,0.065-0.14l0.023-0.059l-0.057-0.029c-0.339-0.175-0.738-0.199-1.097-0.065
					c-0.309,0.115-0.564,0.339-0.72,0.629c-0.024,0.045-0.047,0.092-0.065,0.139l-0.023,0.059l0.056,0.029
					C3.842,25.622,4.241,25.646,4.6,25.512z"/>
				<path fill-rule="evenodd" clip-rule="evenodd" fill="#00854B" d="M5.174,22.551l0.054-0.031l-0.024-0.058
					c-0.149-0.343-0.437-0.604-0.789-0.716c-0.354-0.112-0.742-0.065-1.067,0.128l-0.054,0.032l0.024,0.057
					c0.149,0.343,0.437,0.604,0.789,0.716C4.46,22.791,4.849,22.744,5.174,22.551z"/>
				<path fill-rule="evenodd" clip-rule="evenodd" fill="#00854B" d="M6.238,24.819l-0.021,0.053l0.043,0.021
					c0.288,0.14,0.635,0.128,0.951-0.033c0.306-0.155,0.555-0.427,0.699-0.767l0,0c0.007-0.016,0.013-0.031,0.02-0.047l0.021-0.053
					l-0.043-0.021c-0.287-0.14-0.634-0.128-0.951,0.033C6.637,24.168,6.379,24.461,6.238,24.819z"/>
				<path fill-rule="evenodd" clip-rule="evenodd" fill="#00854B" d="M4.87,23.665L4.84,23.71l0.035,0.027
					c0.233,0.187,0.553,0.247,0.875,0.166c0.313-0.079,0.595-0.276,0.797-0.558l0,0c0.009-0.013,0.018-0.025,0.027-0.039
					l0.029-0.043l-0.035-0.028c-0.233-0.187-0.553-0.247-0.875-0.166C5.367,23.152,5.072,23.367,4.87,23.665z"/>
				<path fill-rule="evenodd" clip-rule="evenodd" fill="#00854B" d="M6.894,18.703L6.87,18.762L6.81,18.745
					c-0.297-0.083-0.546-0.289-0.684-0.564c-0.139-0.275-0.153-0.599-0.043-0.886l0.023-0.06l0.061,0.018
					c0.297,0.083,0.547,0.289,0.685,0.564S7.005,18.416,6.894,18.703z"/>
				<path fill-rule="evenodd" clip-rule="evenodd" fill="#00854B" d="M9.535,16.53c0.01,0.197-0.033,0.393-0.125,0.566
					c-0.051,0.097-0.116,0.185-0.193,0.262l-0.044,0.045l-0.049-0.04c-0.239-0.195-0.384-0.484-0.399-0.792
					c-0.016-0.307,0.101-0.611,0.317-0.829l0.044-0.044l0.049,0.04C9.373,15.934,9.52,16.223,9.535,16.53z"/>
				<path fill-rule="evenodd" clip-rule="evenodd" fill="#00854B" d="M11.611,16.646c-0.029,0.104-0.072,0.203-0.129,0.294l0,0
					c-0.104,0.168-0.254,0.305-0.431,0.395l-0.057,0.028l-0.034-0.054c-0.166-0.26-0.214-0.579-0.133-0.877
					c0.08-0.297,0.286-0.549,0.56-0.688l0.056-0.029l0.034,0.054C11.644,16.028,11.692,16.348,11.611,16.646z"/>
				<path fill-rule="evenodd" clip-rule="evenodd" fill="#00854B" d="M12.747,18.593l-0.013-0.062c-0.065-0.302,0-0.617,0.181-0.868
					c0.179-0.251,0.458-0.415,0.765-0.45l0.063-0.007l0.013,0.062c0.058,0.267,0.015,0.543-0.122,0.777
					c-0.018,0.031-0.037,0.062-0.059,0.091c-0.18,0.251-0.458,0.415-0.765,0.45L12.747,18.593z"/>
				<path fill-rule="evenodd" clip-rule="evenodd" fill="#00854B" d="M13.06,21.236c0.264-0.158,0.585-0.199,0.88-0.11L14,21.145
					l-0.012,0.062c-0.034,0.174-0.111,0.337-0.221,0.474l0,0c-0.081,0.102-0.178,0.186-0.289,0.253
					c-0.264,0.159-0.585,0.199-0.881,0.11l-0.061-0.018l0.013-0.063C12.609,21.662,12.797,21.395,13.06,21.236z"/>
				<path fill-rule="evenodd" clip-rule="evenodd" fill="#00854B" d="M10.829,22.037c-0.093,0.147-0.206,0.279-0.336,0.393
					l-0.05,0.043l-0.039-0.043c-0.27-0.291-0.397-0.707-0.35-1.141c0.048-0.432,0.271-0.854,0.602-1.143l0.049-0.044l0.04,0.043
					c0.27,0.291,0.397,0.707,0.349,1.142C11.065,21.549,10.974,21.809,10.829,22.037L10.829,22.037z"/>
				<path fill-rule="evenodd" clip-rule="evenodd" fill="#00854B" d="M12.808,20.48c-0.012,0.019-0.022,0.037-0.035,0.055
					c-0.21,0.318-0.548,0.534-0.926,0.592l-0.063,0.01l-0.015-0.062c-0.095-0.373-0.031-0.759,0.184-1.083
					c0.211-0.318,0.549-0.533,0.926-0.592l0.063-0.01l0.016,0.062C13.046,19.805,12.993,20.169,12.808,20.48L12.808,20.48z"/>
				<path fill-rule="evenodd" clip-rule="evenodd" fill="#00854B" d="M9.923,19.542l-0.05,0.038L9.83,19.533
					c-0.258-0.282-0.385-0.662-0.35-1.041c0.027-0.293,0.145-0.563,0.341-0.779c0.059-0.066,0.125-0.127,0.196-0.18l0.05-0.038
					l0.043,0.047c0.257,0.281,0.385,0.661,0.35,1.041c-0.027,0.292-0.146,0.562-0.34,0.779C10.06,19.428,9.994,19.488,9.923,19.542z
					"/>
				<path fill-rule="evenodd" clip-rule="evenodd" fill="#00854B" d="M11.269,19.509l-0.059,0.02l-0.025-0.056
					c-0.154-0.34-0.159-0.73-0.012-1.072c0.112-0.263,0.303-0.477,0.549-0.621c0.075-0.043,0.154-0.079,0.236-0.107l0.059-0.021
					l0.025,0.057c0.154,0.339,0.159,0.729,0.012,1.071c-0.112,0.263-0.303,0.478-0.549,0.621
					C11.43,19.443,11.35,19.48,11.269,19.509z"/>
				<path fill-rule="evenodd" clip-rule="evenodd" fill="#00854B" d="M8.562,18.02c0.078,0.32,0.038,0.657-0.114,0.949l0,0
					c-0.023,0.045-0.05,0.09-0.078,0.133l-0.035,0.052l-0.056-0.029c-0.336-0.183-0.58-0.5-0.672-0.87
					c-0.078-0.32-0.038-0.657,0.114-0.949c0.023-0.046,0.05-0.09,0.078-0.132l0.036-0.053l0.055,0.03
					C8.226,17.332,8.471,17.648,8.562,18.02z"/>
				<path fill-rule="evenodd" clip-rule="evenodd" fill="#00854B" d="M6.438,20.161l0.004,0.063l-0.061,0.012
					c-0.368,0.07-0.745-0.021-1.036-0.249c-0.292-0.229-0.472-0.577-0.495-0.954L4.846,18.97l0.061-0.012
					c0.368-0.07,0.746,0.021,1.036,0.249C6.234,19.436,6.414,19.784,6.438,20.161z"/>
				<path fill-rule="evenodd" clip-rule="evenodd" fill="#00854B" d="M8.912,19.765l0.031-0.046l0.042,0.023
					c0.276,0.158,0.462,0.451,0.508,0.805c0.044,0.34-0.041,0.698-0.24,1.008l0,0c-0.009,0.016-0.019,0.029-0.027,0.044
					l-0.032,0.046l-0.041-0.023c-0.277-0.159-0.463-0.452-0.509-0.805C8.598,20.461,8.695,20.083,8.912,19.765z"/>
				<path fill-rule="evenodd" clip-rule="evenodd" fill="#00854B" d="M7.22,19.589l0.028-0.051l0.044,0.02
					c0.299,0.133,0.517,0.412,0.6,0.767c0.079,0.342,0.029,0.715-0.142,1.051l0,0c-0.008,0.016-0.016,0.031-0.024,0.047l-0.027,0.05
					l-0.044-0.02c-0.299-0.133-0.518-0.412-0.6-0.767C6.972,20.329,7.032,19.935,7.22,19.589z"/>
				<circle fill-rule="evenodd" clip-rule="evenodd" fill="#00854B" cx="10.372" cy="23.771" r="0.553"/>
			</g>
		</g>
		<path fill-rule="evenodd" clip-rule="evenodd" fill="#6CBE45" d="M11.253,47.376c0,0-0.367,0.048-0.564-0.256
			c-0.198-0.305,0.4,1.177,2.14,0.795c0,0-1.413,0.629-1.738,0.381c0,0,0.448,0.358,0.904,0.287c0,0-0.335,0.467-0.845,0.409
			c-0.506-0.057,1.229,0.47,2.429-0.683c0.272,1.64,1.976,2.255,1.537,1.998c-0.443-0.26-0.433-0.834-0.433-0.834
			c0.322,0.329,0.896,0.312,0.896,0.312c-0.409,0.004-1.166-1.346-1.166-1.346c1.166,1.346,2.531,0.518,2.19,0.643
			c-0.341,0.126-0.605-0.133-0.605-0.133c0.231,0.165,1.625-0.813,1.536-0.889c-0.016-0.014-0.079,0.002-0.203,0.058
			c-0.824,0.365-2.118,0.107-1.832,0.025c0.287-0.083,0.399-0.319,0.399-0.319c-0.387,0.133-1.109-0.2-1.109-0.2
			c1.158-0.28,1.788-2.578,1.484-1.894c-0.305,0.685-1.474,0.914-1.474,0.914s0.569-0.721,0.337-0.534
			c-0.169,0.136-0.507,0.113-0.727,0.14c0.059-0.071,0.072-0.093,0.208-0.256c0.016,0.013,0.031,0.024,0.048,0.037
			c0.281-0.341,0.572-0.673,0.873-0.997c0.016,0.014,0.029,0.027,0.045,0.041c0.299-0.323,0.608-0.638,0.926-0.943
			c0.014,0.015,0.027,0.029,0.042,0.044c0.315-0.304,0.642-0.599,0.975-0.885c0.013,0.016,0.025,0.031,0.038,0.047
			c0.215-0.184,0.434-0.362,0.655-0.538c0.125,0.126,0.22,0.206,0.249,0.206c0.044-0.001,0.302,0.162,0.57,0.342
			c-0.024,0.107-0.053,0.215-0.085,0.321c0.012,0.003,0.023,0.006,0.036,0.009c-0.078,0.261-0.175,0.52-0.29,0.773
			c0.012,0.004,0.022,0.009,0.034,0.014c-0.115,0.255-0.25,0.505-0.402,0.748c0.01,0.006,0.021,0.012,0.031,0.018
			c-0.14,0.225-0.297,0.441-0.467,0.65c-0.019-0.069-0.034-0.147-0.026-0.199c0.017-0.112-0.113,0.214-0.113,0.214
			s-0.151-0.425,0.018-0.657c0.17-0.233-0.475,0.421-0.342,0.852c0,0-0.252-0.169-0.283-0.321c0,0-0.058,0.083-0.028,0.192
			c0.027,0.109-0.311-0.261-0.35-0.6c-0.039-0.34-0.136,0.545-0.018,0.596c0,0-0.138-0.036-0.162-0.171
			c-0.024-0.136-0.035,0.471,0.643,0.586c0,0-0.599,0.018-0.678-0.115c0,0,0.106,0.189,0.279,0.229c0,0-0.189,0.116-0.362,0.023
			c-0.159-0.086,0.29,0.278,0.834,0.149c0.018,0.02,0.035,0.039,0.054,0.059c0.025-0.023,0.049-0.048,0.074-0.071
			c-0.128,0.601,0.368,1.044,0.252,0.894c-0.118-0.155-0.028-0.355-0.028-0.355c0.065,0.162,0.272,0.238,0.272,0.238
			c-0.146-0.058-0.212-0.64-0.212-0.64c0.212,0.64,0.823,0.545,0.683,0.54c-0.14-0.005-0.195-0.134-0.195-0.134
			c0.058,0.091,0.701-0.053,0.682-0.092c-0.004-0.007-0.029-0.01-0.081-0.009c-0.349,0.01-0.771-0.266-0.656-0.254
			c0.114,0.013,0.189-0.055,0.189-0.055c-0.157-0.009-0.364-0.229-0.364-0.229c0.454,0.067,1.025-0.648,0.813-0.452
			c-0.212,0.197-0.663,0.11-0.663,0.11s0.313-0.171,0.201-0.14c-0.065,0.019-0.197,0.005-0.294-0.011
			c0.19-0.23,0.364-0.471,0.519-0.72c0.011,0.007,0.021,0.013,0.032,0.019c0.16-0.256,0.301-0.52,0.422-0.788
			c0.011,0.005,0.022,0.009,0.034,0.014c0.122-0.271,0.223-0.546,0.305-0.824c0.012,0.003,0.023,0.006,0.036,0.008
			c0.016-0.053,0.027-0.105,0.042-0.159c0.164,0.113,0.284,0.198,0.284,0.198s0.768,0.659,0.891,0.631
			c0.122-0.027,0.473,0.106,0.93,0.229l-4.446-4.318c0,0-0.078,0.771,0.188,1.255c0.101,0.181,0.229,0.393,0.421,0.623
			c-0.211,0.168-0.422,0.341-0.627,0.517c0.014,0.016,0.025,0.032,0.037,0.048c-0.345,0.295-0.682,0.601-1.009,0.915
			c0.014,0.015,0.027,0.029,0.041,0.044c-0.326,0.313-0.644,0.637-0.952,0.968c0.016,0.014,0.029,0.027,0.045,0.041
			c-0.307,0.331-0.604,0.671-0.893,1.018c0.017,0.013,0.032,0.025,0.048,0.037c-0.169,0.205-0.181,0.221-0.257,0.315
			c-0.143-0.119-0.428-0.297-0.483-0.512c-0.075-0.289-0.05,0.63-0.05,0.63s-0.799-0.883-0.634-1.614
			c0.166-0.731-0.704,1.487,0.057,2.404c0,0-0.778-0.164-1.009-0.502c0,0-0.052,0.257,0.129,0.494s-1.011-0.33-1.452-1.116
			C10.24,45.125,10.919,47.368,11.253,47.376L11.253,47.376z M17.994,46.052C17.993,46.052,17.993,46.052,17.994,46.052
			L17.994,46.052L17.994,46.052z"/>
		<path fill-rule="evenodd" clip-rule="evenodd" fill="#41869F" d="M26.181,49.625l0.115,1.457l1.45-0.115l0.111,1.4l1.392-0.109
			l0.558-1.454l3.45-0.274l0.506-1.505l3.214-0.255c0,0-0.096-1.212-1.424-2.218c-0.316-0.24-0.924,0.183-1.479,0.228
			c-0.556,0.044-1.521-0.534-2.047-0.493c-0.95,0.076-0.976,0.603-2.251,0.704c-0.842,0.066-2.329-0.341-2.65-0.315
			c-0.288,0.023-0.85,0.446-0.85,0.446s-0.629,0.135-0.748,0.335c-0.697,1.172-0.742,2.279-0.742,2.279L26.181,49.625L26.181,49.625
			z M25.041,46.771c-0.889,0.07-1.815-1.24-1.815-1.24s0.585,0.672,1.764,0.59c0.763-0.054,1.461-0.89,2.269-0.832
			c0.914,0.064,1.381,0.519,2.36,0.465c0.819-0.045,1.577-0.72,2.351-0.715c1.182,0.008,1.465,0.51,2.359,0.438
			c0.719-0.058,2.324-0.81,2.324-0.81s-0.018,0.027-0.051,0.073c-0.197,0.269-0.958,1.19-2.229,1.291
			c-0.354,0.028-1.319-0.237-2.343-0.233c-0.641,0.002-1.612,0.563-2.359,0.605c-0.64,0.037-1.715-0.355-2.354-0.371
			C26.523,46.014,25.93,46.701,25.041,46.771L25.041,46.771z M30.659,50.15l-0.292,0.022c-0.162,0.013-0.302-0.108-0.314-0.271
			l-0.046-0.578c-0.014-0.165,0.106-0.305,0.268-0.317l0.292-0.023c0.162-0.013,0.302,0.109,0.314,0.271l0.046,0.578
			C30.94,49.998,30.82,50.137,30.659,50.15L30.659,50.15z M32.117,50.034l-0.293,0.023c-0.162,0.013-0.302-0.108-0.314-0.271
			l-0.046-0.577c-0.013-0.165,0.107-0.305,0.269-0.317l0.292-0.023c0.162-0.013,0.302,0.108,0.314,0.271l0.046,0.577
			C32.398,49.882,32.277,50.021,32.117,50.034L32.117,50.034z M27.744,50.381l-0.293,0.023c-0.162,0.013-0.302-0.108-0.314-0.271
			l-0.046-0.577c-0.013-0.165,0.107-0.305,0.269-0.317l0.292-0.023c0.162-0.013,0.302,0.108,0.314,0.271l0.046,0.577
			C28.025,50.229,27.904,50.368,27.744,50.381L27.744,50.381z M29.201,50.266l-0.292,0.022c-0.162,0.014-0.302-0.108-0.314-0.271
			l-0.046-0.578c-0.013-0.164,0.107-0.304,0.268-0.316l0.293-0.023c0.162-0.013,0.302,0.108,0.314,0.271l0.046,0.577
			C29.482,50.113,29.362,50.253,29.201,50.266z"/>
		<path fill-rule="evenodd" clip-rule="evenodd" fill="#41869F" d="M49.387,38.78c0.015-0.494,0.23-1.317,0.207-1.978
			c-0.034-0.933-0.12-1.838-1.385-2.717c-0.174-0.12-0.275-0.089-0.394-0.068c-0.144-0.117-0.308-0.417-0.459-0.473
			c-0.185-0.067-0.228,0.009-0.228,0.009s-0.116-0.111-0.213-0.08c-0.55,0.176,0.044,2.026-0.294,2.989
			c-0.133,0.216-0.702,0.711-0.88,1.393c-0.1,0.385-0.073,0.891,0.085,0.964c0.186,0.086,0.581-0.578,0.825-0.82
			c-0.139,0.454-0.237,0.627-0.675,1.1c-0.7,0.757-1.276,1.257-1.711,1.498c-0.088,0.049-0.259,0.318-0.409,0.323
			c-0.146,0.006-0.37-0.46-0.684-0.613c-0.259-0.127-0.722-0.238-0.867-0.129c-0.139,0.104,0.236,0.254,0.263,0.498
			c0.027,0.245-0.153,0.721-0.144,0.864c0.018,0.24,0.106,0.654,0.094,0.848c-0.023,0.372-0.531,0.45-0.493,0.691
			c0.024,0.146,0.73,0.058,1.17-0.285s0.545-0.838,0.761-0.99c0.231-0.084,0.619-0.05,0.858-0.105
			c1.448-0.339,3.255-1.382,3.486-1.459c0.164,0.022,0.593,0.214,0.738,0.35c0.319,0.297,0.498,0.666,0.628,0.511
			C50.209,40.451,49.496,39.354,49.387,38.78z"/>
		<g>
			<path fill-rule="evenodd" clip-rule="evenodd" fill="#6CBE45" d="M30.906,18.907l0.54-0.681c0.198,0.258,0.117,0.323,0.492,0.691
				c-0.146-1.007-0.274-1.658-0.02-1.771l0.97-0.314c0.206-0.066-0.359,0.03-0.626,0.062c-0.678,0.081-1.227-0.16-1.936-0.365
				C30.951,17.4,31.595,16.398,30.906,18.907z"/>
			
				<circle fill-rule="evenodd" clip-rule="evenodd" fill="#6CBE45" stroke="#6CBE45" stroke-width="0.5" stroke-miterlimit="2.6131" cx="31.65" cy="16.259" r="0.468"/>
		</g>
		<g>
			<path fill-rule="evenodd" clip-rule="evenodd" fill="#41869F" d="M29.055,18.339c7.907,0,14.317,6.41,14.317,14.317
				c0,4.874-2.437,9.18-6.157,11.766c-0.207,0.145-0.403,0.263-0.595,0.365c-0.745,0.397-2.252,1.157-2.895,0.86
				c-1.509-0.695-2.878,0.155-4.582,0.155c-2.013,0-4.406,0.882-5.753,0.008c-5.09-2.195-8.653-7.259-8.653-13.154
				C14.737,24.749,21.147,18.339,29.055,18.339z"/>
			<g>
				<defs>
					<circle id="SVGID_1_" cx="29.093" cy="32.598" r="14.305"/>
				</defs>
				<clipPath id="SVGID_2_">
					<use xlink:href="#SVGID_1_"  overflow="visible"/>
				</clipPath>
				<g clip-path="url(#SVGID_2_)">
					<path fill-rule="evenodd" clip-rule="evenodd" fill="#6CBE45" d="M92.775-8.864v-0.391c-0.517-0.254-0.589-0.163-1.078-0.533
						l-1.136-0.308L90.4-9.201c-0.199-0.097-0.106,0.145-0.206-0.267c-0.093-0.38,0.09-0.991-0.167-1.268
						c-0.106-0.115-0.432-0.243-0.582-0.388c-0.916-0.873-3.942-3.386-5.063-3.591c-2.007-0.366-1.012-0.504-2.99-0.038l0.487,0.896
						l-0.221,0.74c-0.811,0.04-0.87-0.467-1.655-1.615c-0.493,0.053-0.572,0.456-1.236,0.322c-1.589-0.32-0.637-1.067-2.811,1.466
						l0.113-0.988c-0.228-0.343-0.597-0.422-0.512-0.861l0.09-1.211c-0.249-0.225-0.641-0.06-1.051-0.213
						c-1.285-0.481-1.665-0.267-3.212-0.149c-0.404-1.172-1.104-1.036-1.375-1.536c-0.195-0.359-0.155-0.563-0.646-0.852
						l-1.014-0.492l-1.402,1.429c-0.164-0.126-0.071-0.027-0.158-0.229l-0.465-0.889c0.203-0.564,0.695-0.847-0.436-1.13
						c-0.894-0.226-0.957-0.187-1.715,0.239c-0.781,0.438-0.736,0.479-0.602,1.497l-0.899,1.302
						c-0.194-0.156-0.374-0.385-0.609-0.556c-0.456-0.333-0.403-0.047-0.818,0.07l-1.56-0.821l-0.318,1.918
						c-0.688,0.168-1.053-0.635-1.219-1.212c-0.316-1.098-0.014-0.182-0.899-1.585c0.575-0.401,0.84-0.485,0.422-1.592
						c-0.159-0.424-0.423-0.494-0.97-0.536c-1.282-0.098-1.253-0.14-2.462-0.427l0.341,1.164c-0.48,0.212-1.039,0.057-1.541-0.046
						c-0.766-0.155-0.783-0.129-1.292-0.508c-0.611-0.457-0.343-0.394-1.314-0.499l-1.452-0.318l0.002-0.995l-0.824-0.459
						l-0.343,1.439l-0.509-0.794c-0.364,0.221-0.436,0.495-0.535,0.938c-0.113,0.493-0.38,0.511-0.738,0.762l-1.832,1.223
						c0.18-0.977,1.69-2.481,2.348-3.174c0.797-0.838,0.063-0.275,1.164-1.076c1.002-0.729,1.092-0.794,1.082-2.22
						c-0.01-1.292-0.1-0.944-0.702-1.555c-0.163-0.166-0.284-0.454-0.481-0.568c-0.149-0.088-0.65-0.229-0.86-0.259l-1.566,0.53
						c-0.087-0.192,0.003-0.747,0.003-0.972l-0.91-0.612l0.178-0.973l-0.254-0.11c-1.061-0.209-3.104,0.305-2.738,1.446
						c0.09,0.279,0.285,0.57,0.345,0.872c0.026,0.136-0.006,0.207-0.058,0.334l-1.859,0.008l0.039,1.009l-0.863,0.331l0.09-0.906
						l-0.867,0.086l0.115-0.541l-0.363-0.324c0.205-0.023,0.303,0.072,0.465,0.147l0.718,0.19c0.057-0.559-0.194-0.249-0.277-0.688
						l-0.167-0.811c-0.28,0.106-0.239,0.322-0.313,0.582c-0.085,0.309-0.467,0.199-0.66,0.429c-0.244,0.441,0.278,1.668-0.24,2.046
						c-0.273,0.2-1.654,0.309-2.098,0.438c-0.654,0.193-2.139,1.87-2.683,2.409l0.472,2.313c-1.499-0.001,0.602-0.909-3.648,0.376
						c0.052,0.405,0.194,0.283,0.233,0.669c0.03,0.301-0.089,0.601-0.05,0.901c0.067,0.531,0.635,0.546,0.901,0.977
						c0.147,0.238,0.125,0.385,0.285,0.612c0.605,0.861,0.401,0.291,0.484,2.231c-0.425,0.231-0.697-0.337-0.748-0.776l0.152-1.497
						c-1.134-0.463-0.442-0.161-1.591-0.871l-1.562-0.951c-0.445,0.341-0.725,1.279-0.971,1.817l-0.149-2.598
						c-0.234,0.313-0.276,0.767-0.367,1.204c-0.152,0.734-1.031,1.463-0.811,2.385l0.479,1.126c-0.529,0.592-0.42,0.202-0.104,2.22
						l1.168,0.323l-1.09,0.444l0.651,1.046c-0.56,0.595-0.383-0.047-0.653,1.593c-0.321,0.124-0.48,0.102-0.732,0.31
						c-0.828,0.685-0.258,0.636-2.147-0.056c1.342-0.251,1.806,0.219,2.242-1.117c0.08-0.247,0.198-1.201,0.157-1.456
						c-0.039-0.242-0.174-0.432-0.212-0.634l0.169-0.731c-0.037-0.231-0.548-0.469-0.273-1.605c0.132-0.542-0.068-1.235-0.22-1.738
						c-0.156-0.519,0.179-0.944,0.283-1.559c0.048-0.281,0.057-0.623,0.042-0.932l-0.608-0.439c-0.037-0.717,0.424-0.26-0.514-1.168
						c-0.286,0.246-0.033,0.266-0.335,0.532c-0.859,0.756-0.587-0.279-1.021,1.909c-0.278,1.403-0.531,1.437-1.393,2.461
						c0.15,0.453,0.322,0.452,0.346,1.123c0.025,0.7,0.048,0.721,0.42,1.085c0.939,0.919,0.729,0.578,0.916,1.897
						c-0.203-0.104-0.299-0.269-0.658-0.442c-2.114-1.023-0.869-0.469-2.009-1.571c-0.435-0.421-0.995-0.513-1.671-0.632
						l-1.393-0.995l-0.38,0.655c0.232,0.325,0.633,0.561,0.856,0.943l0.494,1.391l-0.896-0.833l-0.356,0.601
						c-0.481,0.052-0.942,0.078-1.289-0.16l-0.902-0.009l0.319,0.473l-1.343,0.735l0.603-0.511l-0.013-0.835
						c-1.238-0.096-1.735,0.865-2.371,1.368c-0.313,0.248-0.813,0.501-0.987,0.878L9.92-10.454l-0.58-0.638
						c0.125-0.161,0.55-0.351,0.7-0.498c0.253-0.247,0.212-0.473-0.023-0.774l-1.719-0.656c0.039,0.3,0.313,0.733,0.37,1.124
						l-0.373,1.104c0.546,0.708,0.797-0.056,0.299,1.705c-0.443-0.459-0.439-0.855-0.522-1.42C7.644-10.405,7.729-9.895,7.118-9.28
						L6.027-8.179c0.28,0.788,0.707,0.229-0.123,1.362C5.238-7.503,6.17-7.13,4.321-8.04L4.233-7.262L5.087-6.76L4.618-6.102
						c-0.329-0.37,0.033-0.275-0.516-0.57C3.813-6.827,3.631-6.913,3.527-7.208C3.23-8.052,3.368-8.253,3.597-9.009
						C2.812-9.177,2.873-9.145,2.445-9.842c0.841-0.345,2.574,1.197,3.606,0.617c0.423-0.237,0.863-0.724,1.059-1.262
						c0.369-1.017-0.302-0.993-0.761-1.424c-0.412-0.388-0.643-0.9-1.042-1.272c-0.392-0.363-0.948-0.625-1.372-0.945
						c-0.567-0.429-1.063-0.327-1.679-0.637L0.67-14.807l0.611-1.065c-0.137-0.244-0.238-0.262-0.559-0.424
						c-0.232-0.117-0.438-0.274-0.622-0.351c-0.312-0.129-1.224-0.043-1.779-0.151c-0.407-0.079-1.185,0.159-1.584,0.273
						l-1.143,0.79l-1.214-0.067c-0.473,0.529-0.311,0.671-0.983,1.24c-0.869,0.736-0.745,0.208-1.382,0.858
						c-0.736,0.752-0.48,0.875-0.952,1.289c-0.155,0.136-0.495,0.393-0.587,0.536l0.266,0.74c0.057-0.11,0.007-0.25,0.043-0.391
						c0.076-0.292,0.064-0.152,0.975-0.508c0.319,0.663-0.775,1.631-1.054,1.954c-0.165,0.191-0.414,0.73-0.565,1.004l-0.16,1.504
						c-0.462,0.348-0.324-0.033-0.645,0.604c-0.204,0.408-1.133,0.611-2.037,1.845c-0.322,0.439-0.782,1.021-1.018,1.604
						l-0.099,2.065c-0.121,0.511-0.431,0.28,0.2,1.221c0.148,0.22,0.722,1,0.845,1.099c0.663,0.538,1.875-0.703,2.362-1.084
						c0.228,0.296,0.228,0.941,0.326,1.374c0.157,0.686,0.225,0.349,0.242,1.219l-0.919-1.191c-0.336,0.097-0.687,0.454-0.931,0.682
						c-0.858,0.798-0.049,1.81-0.516,2.618l-0.788,0.91l0.002-0.866c-0.567,0.47-0.854,1.558-1.254,2.251
						c-0.113,0.196-0.794,0.904-1.105,1.286c-0.196,0.241-0.319,0.49-0.494,0.701c-0.367,0.24-1.846,0.27-1.908,0.702
						c-0.031,0.211,0.058,0.432,0.113,0.641l-1.619-0.142c0.208,0.412,1.298,1.189,1.698,1.591c0.223,0.223,0.404,0.83,0.43,1.255
						l-0.377,1.31c-1.359,0.199-1.916-0.123-2.43-0.109c-1.218,0.031-0.916-0.104-1.984,0.445c-0.064,0.699,0.481,0.7,0.133,1.654
						c-0.283,0.774-0.434,0.756-0.169,1.645c0.185,0.619,0.255,1.032,0.916,1.172l1.403,0.757c0.328-0.113,0.452-0.306,0.756-0.371
						c1.15-0.248,1.553,0.2,2.294-1.209c0.336-0.64-0.163-0.979,0.748-1.568c0.485-0.313,0.835-0.681,1.295-1.034l0.033-1.056
						c0.927-0.102,1.118,0.744,1.836,0.251l1.421-0.995c1.457,2.116,1.735,2.097,3.884,3.679l-0.391,1.037
						c-0.814-0.291-0.675-0.183-1.638,0.072c0.109,0.283,0.59,0.444,0.907,0.583l0.767-0.471c0.717-0.241,0.329,0.142,1.333-0.934
						l-0.334-0.82c0.341,0.078,0.554,0.321,0.899,0.334l0.025-0.668c-0.417-0.237-2.669-1.722-2.961-2.179l-0.667-1.074l0.398-0.534
						c0.45,0.222,0.775,1.132,1.336,1.515c2.138,1.46,1.943,0.717,2.804,2.95c0.467,1.212,0.204,0.896,1.238,1.687l0.35-1.904
						l1.135,0.541c0.227-0.98,0.168-0.736,1.325-1.09c-0.363,0.764-0.748,0.901-0.423,1.843c0.191,0.557-0.115,0.609-0.179,0.997
						l0.383,0.896c0.493-0.023,0.92-0.224,1.384-0.302c0.746-0.127,0.708-0.203,1.285-0.381c0.653-0.201,0.786,0.361,1.23,0.347
						l1.252-0.344c0.166,0.577-0.187,1.033-0.396,1.497l-0.256,1.768c-0.769,0.475-0.973,0.822-1.789,0.228
						c-0.316-0.231-0.539-0.407-0.93-0.116c-0.338,0.251-0.755,0.171-1.234,0.162c-1.028-0.021-1.426-0.163-2.204-0.607
						c-0.813-0.465-1.075-0.933-1.714,0.001c-0.488,0.714-0.541,1.128-1.674,0.778c-0.363-0.111-0.699-0.234-1.019-0.407
						c-0.435-0.235-0.527-0.454-0.796-0.622c-0.804-0.504-1.557,0.517-1.978-0.857c-0.393-1.281-0.434-0.738-0.177-2.068
						c-0.627-0.639-1.416-0.491-2.378-0.347c-0.866,0.13-1.758,0.203-2.628,0.347c-1.291,0.214-1.276,0.67-2.074,0.845
						c-1.024,0.225-1.586,0.047-2.556-0.2c-0.278,0.293-0.342,0.722-1.231,1.634c-0.811,0.83-1.123,0.79-1.617,2.72
						c-0.124,0.485-1.439,0.959-2.198,2.131c-0.379,0.585-0.705,1.194-1.075,1.762c-0.307,0.472-0.323,0.464-0.181,1.154
						c0.278,1.352,0.077,2.36-0.309,3.657c-0.339,1.14-0.613,1.463,0.351,2.044c1.193,0.72,0.578,1.539,2.602,3.151
						c0.493,0.394,1.052,0.827,1.652,1.187c0.377,0.226,0.538,0.37,1.083,0.272c0.39-0.069,0.807-0.171,1.196-0.29
						c1.164-0.356,1.76,0.091,2.448-0.089c0.669-0.176,1.218-0.934,1.985-0.938c1.267-0.006,1.351,0.471,1.909,1.012
						c0.384,0.371,0.64,0.071,1.152,0.104l0.974,0.518c0.053,0.68-0.498,2.404-0.686,3.155c0.702,1.125,1.563,0.455,2.084,2.486
						c0.126,0.492,0.444,0.808,0.508,1.059c0.111,0.435-0.23,0.407,0.171,1.172c0.567,1.079,0.421,1.059-0.403,1.889
						c-0.374,0.378-0.53,1.854-0.627,2.466c-0.131,0.831,0.819,1.064,1.068,1.962c0.051,0.183,0.092,0.433,0.166,0.583
						c0.094,0.19,0.228,0.299,0.322,0.494c0.174,0.359-0.103,1.555,0.271,2.644c0.223,0.654,0.701,1.454,1.024,2.113
						c0.831,1.692,0.626,0.896,0.712,2.334c0.018,0.293,0.367,0.732,0.544,0.964c0.58,0.762,2.09-0.19,3.657-0.356
						c1.03-0.109,1.642-0.393,2.243-0.907c0.822-0.703,1.23-1.748,1.856-2.701c0.185-0.282,0.483-0.652,0.592-0.98
						c0.175-0.531-0.11-0.791,0.415-1.074c0.518-0.28,0.557-0.143,0.768-0.806c0.432-1.358,0.378-1.114-0.125-2.359
						c0.479-0.968,2.722-1.978,2.945-2.656c0.143-0.431,0.254-1.092,0.323-1.534c0.087-0.555,0.259-1.195,0.055-1.742
						c-0.132-0.354-0.588-1.034-0.607-1.248c-0.031-0.342,0.205-0.561,0.076-1.661c-0.093-0.791,0.083-0.991,0.447-1.442
						c0.582-0.723,1.179-1.27,1.812-1.923c0.652-0.674,1.176-1.207,1.943-1.866c1.438-1.233,1.609-1.531,2.253-3.34
						c0.165-0.466,0.369-0.906,0.379-1.396c-0.608-0.521-3.499,0.474-4.394,0.416c-0.607-0.039-0.874-0.844-1.092-1.357
						c-0.137-0.325-0.23-0.584-0.441-0.826l-0.255-1.01c-0.752-0.606-1.277-0.479-1.712-1.432c-0.349-0.762-0.509-1.532-0.826-2.318
						c-0.273-0.68-0.675-1.431-0.963-2.163c-0.443-1.126-0.42-1.117-1.047-2.152l0.904,0.682l0.128-0.894
						c0.245,0.078,0.228,0.241,0.302,0.507c0.191,0.682,0.422,1.222,0.77,1.843c0.234,0.416,0.381,0.685,0.629,1.09
						c0.102,0.167,0.222,0.358,0.325,0.496c0.175,0.23,0.275,0.283,0.408,0.49c0.616,0.962-0.435,1.325,0.853,2.582
						c0.799,0.78,0.999,0.879,1.473,1.959c0.499,1.14,0.395,1.661,1.824,1.342c1.689-0.377,3.127-1.459,4.659-2.219
						c0.799-0.396,1.39-0.828,2.128-1.307l-0.186-0.738l0.709-0.02l0.593-1.633c-0.232-0.247-0.929-0.697-1.316-0.851
						c-0.438-0.173-0.419-0.089-0.511-0.598l-0.559-0.563c-0.418,0.247-0.461,0.563-0.836,0.803l-1.33,0.382
						c-0.579-0.408-0.082-0.655-0.288-1.182c-0.145-0.368-0.611,0.009-0.978-0.612l-0.979-1.928c0.37-0.259,0.862,0.281,1.147,0.491
						c0.313,0.23,1.882,1.354,2.149,1.436l1.263-0.002c0.774,0.374,0.557,1.089,1.797,1.208c2.704,0.258,3.48-0.668,4.94,0.802
						l1.406,1.699l1.456-0.08c0.078,0.731-0.152,0.577,0.128,2.336c0.052,0.324,0.063,0.864,0.22,1.129
						c0.152,0.259,0.506,0.378,0.689,0.656c0.207,0.313,0.503,1.479,0.675,1.932l0.863,1.841c0.447,0.005,1.098-0.521,1.229-0.875
						c0.149-0.405,0.182-1.246,0.311-1.778c0.178-0.735-0.12-1.321,0.496-1.593c0.5-0.221,3.752-3.851,4.36-4.015l1.971-0.112
						c0.341,0.483,0.175,1.175,0.421,1.52l1.182,0.826l0.022,1.907l1.691-1.145c0.073,0.456-0.222,0.763-0.153,1.202
						c0.045,0.293,0.368,0.778,0.337,1.134c-0.032,0.372-0.532,0.567-0.125,1.042c0.193,0.226,0.092-0.123,0.156,0.24
						c0.068,0.388-0.218,0.482-0.158,0.948c0.077,0.61,1.623,3.06,2.066,3.88c-0.305-0.053-1.361-1-1.642-1.237
						c-0.777-0.658-1.161-0.643-2.176-0.871c0.114,0.471,0.302,0.283,0.453,0.728c0.163,0.646-0.117,1.072,0.612,1.185
						c1.214,0.188-0.143,1.127,0.645,1.814l1.225,0.932l-0.746-1.505c0.472,0.206,1.532,1.729,2.015,2.263
						c0.151,0.166,0.301,0.278,0.451,0.446c0.588,0.657,0.965,1.159,1.842,1.595c1.331,0.659,2.887,0.688,4.303,0.909
						c0.907,0.142,2.088,0.487,2.966,0.508c0.679,0.016,1.011-0.316,1.474-0.241c0.501,0.082,0.83,0.423,1.144,0.597
						c0.521,0.291,1.948-0.664,2.375-0.914l2.732-0.829c-0.159-0.01-2.143,0.116-2.23,0.141c-0.258,0.072-0.557,0.262-0.841,0.353
						c-0.506,0.161-0.551-0.039-1.039,0.015c-1.726,0.192-1.492,0.724-4.185,0.08c-1.242-0.297-2.514-0.686-3.797-0.9
						c-2.362-0.396-1.507,0.493-3.04-1.617l1.866,0.371c0.083-0.142,0.096-0.126-0.174-0.396c-0.704-0.705-0.846-0.382-1.68-0.69
						c-0.237-0.124-0.915-0.832-1.14-1.05l-0.852-1.271l0.88,0.225c-0.04-0.537-0.027-1.065-0.059-1.594
						c-0.046-0.76-1.27-1.027-1.71-1.596l-0.665-1.087l0.616-0.822c-0.101-0.107-0.395-0.201-0.826-0.632
						c0.04-0.42,0.094-0.287,0.162-0.701c1.284,0,1.143-0.063,1.887,0.649c0.862,0.828,0.679,0.405,0.817,1.644
						c0.723-0.096,2.301-1.128,2.728-1.736c0.235-0.335,0.441-0.536,0.759-0.792c-0.112-0.464-0.849-1.424-1.138-1.833l-1.625-1.43
						c0.077-0.534,1.641-2.001,1.771-1.986l0.806,0.394l-0.758,1.405l1.18-0.121l-0.306-1.577c1.763-0.29,3.542-0.787,4.755-1.986
						c1.191-1.178,0.695-1.14,1.343-2.017c0.96-1.302,0.695-0.687,1.052-2.327c-0.646-0.605-0.58-0.079-0.879-1.273l-0.624-1.562
						c0.382-0.271,1.435-0.751,1.507-1.166c0.079-0.459-0.176-0.676-0.568-0.722l-1.045,0.272c-0.595-0.446,0.176-0.174-1.269-0.729
						c0.149-0.158,0.081-0.093,0.336-0.186c0.455-0.165,0.561-0.379,0.967-0.604l1.448-0.679l-0.563,1.225
						c0.526,0.086,1.53-0.764,2.052-0.408c0.195,0.278-0.134,0.512,0.104,1.014c0.111,0.234,0.351,0.488,0.505,0.764l0.548,2.067
						c0.213-0.047,0.793-0.402,0.885-0.64c0.166-0.432-0.064-0.582,0.287-1.295c0.238-0.485,0.025-0.577-0.203-1.048l-0.383-1.257
						c0.245-0.269,0.521-0.319,0.874-0.461c0.527-0.211,0.453-0.339,0.49-0.962c0.068-1.144,0.667-1.161,1.626-0.901
						c0.375,0.101,1.303-0.805,1.599-1.072c0.521-0.472,2.026-2.701,2.252-3.427c0.228-0.73,0.436-1.51,0.634-2.186
						c0.205-0.699-0.015-0.768,0.021-1.29c0.025-0.383,0.153-0.848-0.033-1.268c-0.066-0.15-0.604-0.588-0.781-0.628l-0.989,0.306
						l-0.396-0.91c-0.217,0.129-0.231,0.233-0.396,0.418l-0.261-0.691l1.956-2.212c0.813-0.758,1.779-2.262,2.829-2.493
						c0.308-0.068,0.556,0.147,0.777,0.253c1.001,0.474,1.3,0.104,1.773,0.002c0.564-0.121,0.768,0.605,1.388,0.64l1.806-0.223
						c-0.014-1.404,0.245-1.499,0.878-2.396c0.717-1.017,0.814-0.896,1.917-1.382l0.712,1.688c0.609-1.099,1.51-1.773,2.46-2.542
						c0.193,0.459-0.194,0.507-0.314,0.875c-0.418,1.274,0.782,0.74-1.445,2.598c-0.57,0.476-0.901,0.69-1.369,1.321
						c-0.783,1.059-2.186,2.317-2.299,3.07c-0.118,0.788,0.115,1.673,0.187,2.445c0.056,0.601,0.166,0.589,0.325,1.029
						c0.234,0.647-0.036,0.652-0.194,1.04c-0.205,0.504,0.202,0.47-0.185,1.002L72.01,9.012c-0.184,0.8,0.175,0.563-0.384,1.174
						l-0.553,0.955c0.785,0.005,0.959-1.391,1.38-1.846c0.801-0.865,0.794-1.062,1.43-1.856l2.265-2.664l0.349-1.366
						c1.789-0.706,0.414-0.956,0.601-1.575l0.343-0.596l-0.807-0.751c0.305-0.367,0.257,0.091,0.488-0.491
						c0.488-1.224,0.542-1.25,1.836-0.832c0.656-0.42,1.146-1.595,1.877-0.853l0.438,0.58c0.894-1.265,1.213-1.297,2.438-2.166
						c0.457-0.324,0.906-0.623,1.343-0.973c0.178-0.144,0.43-0.454,0.727-0.372c0.246,0.067,0.474,0.373,0.658,0.558
						c0.542-1.56-0.12-1.889-1.168-3.113l1.156,0.248l0.935-1.325l-0.371-0.598l0.687-0.426l0.469,1.32
						c0.395,0.02,0.695-0.221,1.053-0.079c0.196,0.079,0.557,0.503,0.68,0.663l1.633,0.845c0.194-0.598-0.072-1.186,0.327-1.468
						C92.435-8.417,92.322-8.394,92.775-8.864z"/>
				</g>
			</g>
		</g>
		<text transform="matrix(1 0 0 1 57.5791 35.6182)"><tspan x="0" y="0" fill="#00854B" font-family="'SegoeUI-Light'" font-size="4.015">S</tspan><tspan x="1.996" y="0" fill="#00854B" font-family="'SegoeUI-Light'" font-size="4.015">ustainable Contemporary and</tspan><tspan x="11.467" y="4.015" fill="#00854B" font-family="'SegoeUI-Light'" font-size="4.015">R</tspan><tspan x="13.696" y="4.015" fill="#00854B" font-family="'SegoeUI-Light'" font-size="4.015">enewable Initiatives for</tspan><tspan x="20.396" y="8.03" fill="#00854B" font-family="'SegoeUI-Light'" font-size="4.015">T</tspan><tspan x="22.449" y="8.03" fill="#00854B" font-family="'SegoeUI-Light'" font-size="4.015">ransforming India</tspan></text>
	</g>
</g>
</svg>
