<svg xmlns="http://www.w3.org/2000/svg" xmlns:xlink="http://www.w3.org/1999/xlink" width="28" height="28" viewBox="0 0 28 28">
    <defs>
        <path id="a" d="M10.85 21.252C5.034 21.252.288 16.57.288 10.77.288 4.969 5.034.237 10.85.237c5.817 0 10.563 4.732 10.563 10.533 0 5.8-4.797 10.482-10.563 10.482z"/>
    </defs>
    <g fill="none" fill-rule="evenodd">
        <g transform="translate(3.218 3.281)">
            <mask id="b" fill="#fff">
                <use xlink:href="#a"/>
            </mask>
            <use fill="#00BFA5" opacity=".5" xlink:href="#a"/>
            <path fill="#00BFA5" fill-rule="nonzero" stroke="#00BFA5" stroke-width=".5" d="M9.763-1.866C3.385-1.866-1.82 3.324-1.82 9.685c0 6.36 5.205 11.55 11.583 11.55s11.582-5.19 11.582-11.55S16.09-1.865 9.763-1.865zm0 22.033C3.946 20.167-.8 15.486-.8 9.685-.8 3.885 3.946-.848 9.763-.848c5.817 0 10.562 4.732 10.562 10.533 0 5.8-4.796 10.482-10.562 10.482z" mask="url(#b)"/>
            <path fill="#FFF" fill-rule="nonzero" stroke="#FFF" stroke-width=".5" d="M11.938.304C5.56.304.355 5.494.355 11.854S5.56 23.405 11.938 23.405s11.583-5.19 11.583-11.55C23.52 5.493 18.265.303 11.938.303zm0 22.032c-5.817 0-10.562-4.68-10.562-10.482 0-5.8 4.745-10.533 10.562-10.533 5.817 0 10.562 4.732 10.562 10.533 0 5.801-4.796 10.482-10.562 10.482z" mask="url(#b)"/>
        </g>
        <path fill="#FFF" stroke="#FFF" stroke-linecap="round" stroke-linejoin="round" stroke-width=".2" d="M12.391 9.65h6.359v.013c-.375.585-.586.898-.635.938h-1.698c.233.277.392.614.476 1.011h1.81c.023.005.034.014.034.027-.406.616-.613.925-.622.925H16.94c-.027.317-.176.698-.45 1.145-.361.45-.707.743-1.037.877-.617.3-1.208.45-1.772.45v.013c0 .044.139.23.417.555l3.14 3.838v.181c0 .018-.012.027-.034.027h-1.381c-2.486-2.934-3.728-4.407-3.728-4.42v-.891l.013-.034c.22.031.478.047.773.047 1.393 0 2.259-.458 2.598-1.373.053-.134.08-.273.08-.415h-3.782c-.017 0-.026-.01-.026-.027.419-.616.632-.925.641-.925h3.001V11.6c-.172-.353-.504-.627-.998-.824a3.079 3.079 0 0 0-.952-.174h-1.679v-.033c.406-.612.615-.918.628-.918z"/>
        <path fill="#000" stroke="#000" stroke-linecap="round" stroke-linejoin="round" stroke-width=".2" d="M11.491 9.45h6.359v.013c-.375.585-.586.898-.635.938h-1.698c.233.277.392.614.476 1.011h1.81c.023.005.034.014.034.027-.406.616-.613.925-.622.925H16.04c-.027.317-.176.698-.45 1.145-.361.45-.707.743-1.037.877-.617.3-1.208.45-1.772.45v.013c0 .044.139.23.417.555l3.14 3.838v.181c0 .018-.012.027-.034.027h-1.381c-2.486-2.934-3.728-4.407-3.728-4.42v-.891l.013-.034c.22.031.478.047.773.047 1.393 0 2.259-.458 2.598-1.373.053-.134.08-.273.08-.415h-3.782c-.017 0-.026-.01-.026-.027.419-.616.632-.925.641-.925h3.001V11.4c-.172-.353-.504-.627-.998-.824a3.079 3.079 0 0 0-.952-.174h-1.679v-.033c.406-.612.615-.918.628-.918z"/>
        <path fill="#000" fill-rule="nonzero" stroke="#000" stroke-width=".5" d="M14.068 2.5C7.69 2.5 2.486 7.69 2.486 14.05c0 6.361 5.204 11.552 11.582 11.552 6.378 0 11.583-5.19 11.583-11.551 0-6.36-5.256-11.55-11.583-11.55zm0 22.033c-5.817 0-10.562-4.681-10.562-10.482 0-5.8 4.745-10.533 10.562-10.533 5.817 0 10.562 4.732 10.562 10.533 0 5.8-4.796 10.482-10.562 10.482z"/>
    </g>
</svg>
