<svg xmlns="http://www.w3.org/2000/svg" width="48" height="48" viewBox="0 0 48 48">
    <g fill="none" fill-rule="evenodd">
        <path fill="#00BFA5" d="M18.775 15.658c.486-.732.975-1.446 1.465-2.14a80.722 80.722 0 0 1 4.389-5.691c.834-.982 1.53-1.741 1.8-2.01.763-.773 2.079-.773 2.841 0 .401.405 1.215 1.3 2.246 2.541a85.826 85.826 0 0 1 5.344 7.202c3.901 5.848 4.788 10.814 4.788 14.786 0 8.731-4.911 14.63-13.798 14.63s-14.898-5.899-14.898-14.63c0-1.736.38-3.663 1.133-5.77.96-2.686 2.528-5.666 4.69-8.918z" opacity=".5"/>
        <path stroke="#00BFA5" stroke-width="2.2" d="M23.77 4.717c.401.405 1.215 1.3 2.246 2.541a85.826 85.826 0 0 1 5.344 7.202c3.901 5.848 5.888 10.814 5.888 14.786 0 8.731-6.011 14.63-14.898 14.63"/>
        <path stroke="#FFF" stroke-width="2.2" d="M17.503 15.61c.486-.732.975-1.445 1.465-2.14a80.722 80.722 0 0 1 4.389-5.69c.834-.983 1.53-1.742 1.8-2.01.763-.773 2.079-.773 2.841-.001.402.405 1.215 1.3 2.246 2.541a85.826 85.826 0 0 1 5.344 7.203c3.902 5.847 5.888 10.813 5.888 14.786 0 8.73-6.011 14.63-14.898 14.63S11.68 39.03 11.68 30.3c0-1.737.38-3.663 1.133-5.77.96-2.686 2.528-5.666 4.69-8.92z"/>
        <path stroke="#000" stroke-width="2.2" d="M16.94 12.418a80.722 80.722 0 0 1 4.389-5.691c.834-.982 1.53-1.741 1.8-2.01.763-.773 2.079-.773 2.841 0 .401.405 1.215 1.3 2.246 2.541a85.826 85.826 0 0 1 5.344 7.202c3.901 5.848 5.888 10.814 5.888 14.786 0 8.731-6.011 14.63-14.898 14.63S9.652 37.978 9.652 29.247c0-1.427.257-2.983.766-4.662.05-.164.102-.33.157-.496"/>
        <path fill="#000" fill-rule="nonzero" stroke="#000" stroke-width=".914" d="M25.742 38.5a.65.65 0 0 1-.66-.641.65.65 0 0 1 .66-.64c4.038 0 7.323-3.186 7.323-7.103 0-.863-.157-1.707-.469-2.506a.636.636 0 0 1 .385-.826.668.668 0 0 1 .85.373c.368.944.555 1.94.555 2.958 0 4.624-3.878 8.384-8.644 8.384z"/>
        <g fill="#000" fill-rule="nonzero" stroke="#000" stroke-width="1.1">
            <path d="M20.571 22.175l.873-.244a.483.483 0 0 1 .601.347.508.508 0 0 1-.354.613l-2.025.565a.483.483 0 0 1-.601-.347l-.523-2.036a.508.508 0 0 1 .354-.613.483.483 0 0 1 .6.346l.226.878.397-.688c1.659-2.873.722-6.52-2.094-8.145a5.81 5.81 0 0 0-4.603-.523.483.483 0 0 1-.608-.334.508.508 0 0 1 .341-.62 6.781 6.781 0 0 1 5.371.61c3.284 1.896 4.378 6.15 2.442 9.503l-.397.688zm-11.74-7.017l-.397.688c-1.66 2.873-.722 6.52 2.093 8.145a5.81 5.81 0 0 0 4.602.523.483.483 0 0 1 .608.334.508.508 0 0 1-.341.62 6.78 6.78 0 0 1-5.37-.61c-3.284-1.896-4.377-6.15-2.442-9.503l.397-.687-.873.243a.483.483 0 0 1-.6-.347.508.508 0 0 1 .354-.613l2.025-.565a.483.483 0 0 1 .6.347l.524 2.036a.508.508 0 0 1-.354.613.483.483 0 0 1-.6-.346l-.226-.878z"/>
        </g>
    </g>
</svg>
