<svg xmlns="http://www.w3.org/2000/svg" width="48" height="48" viewBox="0 0 48 48">
    <g fill="none" fill-rule="evenodd">
        <path fill="#00BFA5" fill-opacity=".5" d="M17.502 37.154h3.513v8.77c0 .483.393.876.878.876h10.536a.877.877 0 0 0 .878-.877V36.95a7.903 7.903 0 0 0 6.147-7.688V3.83c0-1.453-1.18-2.631-2.634-2.631H31.55a2.632 2.632 0 0 0-2.634 2.63v14.908h-13.17A6.15 6.15 0 0 0 9.6 24.877v4.385c.005 4.356 3.54 7.887 7.902 7.892z"/>
        <path stroke="#00BFA5" stroke-width="2.4" d="M12.462 36.434h3.513v8.77c0 .483.393.876.878.876h10.536a.877.877 0 0 0 .878-.877V36.23a7.903 7.903 0 0 0 6.147-7.688V3.11c0-1.453-1.18-2.631-2.635-2.631h-5.268a2.632 2.632 0 0 0-2.634 2.63v14.908h-13.17a6.15 6.15 0 0 0-6.147 6.139v4.385c.005 4.356 3.54 7.887 7.902 7.892z"/>
        <path stroke="#FFF" stroke-width="2.4" d="M17.622 38.714h3.513v8.77c0 .483.393.876.878.876h10.536a.877.877 0 0 0 .878-.877V38.51a7.903 7.903 0 0 0 6.147-7.688V5.39c0-1.453-1.18-2.631-2.634-2.631H31.67a2.632 2.632 0 0 0-2.634 2.63v14.908h-13.17a6.15 6.15 0 0 0-6.147 6.139v4.385c.005 4.356 3.54 7.887 7.902 7.892z"/>
        <path fill="#000" fill-rule="nonzero" stroke="#000" stroke-width=".6" d="M15.102 37.154h3.513v8.77c0 .483.393.876.878.876h10.536a.877.877 0 0 0 .878-.877V36.95a7.903 7.903 0 0 0 6.147-7.688V3.83c0-1.453-1.18-2.631-2.634-2.631H29.15a2.632 2.632 0 0 0-2.634 2.63v14.908h-13.17A6.15 6.15 0 0 0 7.2 24.877v4.385c.005 4.356 3.54 7.887 7.902 7.892zm14.05 7.892H20.37v-7.892h8.78v7.892zm-.879-38.584h7.025V24h-7.025V6.462zm0-2.631c0-.485.393-.877.878-.877h5.269c.484 0 .878.392.878.877v.877h-7.025V3.83zM13.346 20.492h13.171V24H9.044a4.396 4.396 0 0 1 4.302-3.508zm-4.39 5.262h26.342v3.508A6.15 6.15 0 0 1 29.15 35.4H15.102a6.15 6.15 0 0 1-6.146-6.138v-3.508z"/>
        <path fill="#000" fill-rule="nonzero" d="M32.663 9.97h-1.756a.877.877 0 1 0 0 1.753h1.756a.877.877 0 1 0 0-1.754zM4.92 9.12a3.96 3.96 0 0 1 3.96 3.96 1.32 1.32 0 1 0 2.64 0 3.96 3.96 0 0 1 3.96-3.96 1.32 1.32 0 1 0 0-2.64 3.96 3.96 0 0 1-3.96-3.96 1.32 1.32 0 1 0-2.64 0 3.96 3.96 0 0 1-3.96 3.96 1.32 1.32 0 1 0 0 2.64zm5.28-3.9a13.08 13.08 0 0 0 2.58 2.58 13.08 13.08 0 0 0-2.58 2.58A13.08 13.08 0 0 0 7.62 7.8a13.08 13.08 0 0 0 2.58-2.58z"/>
    </g>
</svg>
